# Alias OBJ Model File
# Exported from SketchUp, (c) 2000-2006 Google, Inc.
# File units = meters

mtllib waypoint.mtl

g Mesh1 Model

usemtl Color_F06
v -0.25 1.2 -0.25
vt -9.84252 43.4463
vn -0.970143 0.242536 3.55781e-017
v -0.25 1.2 0.25
vt 9.84252 43.4463
v 3.60956e-016 2.2 -1.80478e-016
vt -7.10543e-015 84.0281
f 1/1/1 2/2/1 3/3/1

usemtl Color_F12
vt -9.84252 47.2441
vn -1 0 -0
v -0.25 1 0.25
vt 9.84252 39.3701
vt 9.84252 47.2441
f 1/4/2 4/5/2 2/6/2

v -0.25 1 -0.25
vt -9.84252 39.3701
f 4/5/2 1/4/2 5/7/2

vt 9.84252 47.2441
vn 0 0 -1
v 0.25 1 -0.25
vt -9.84252 39.3701
vt 9.84252 39.3701
f 1/8/3 6/9/3 5/10/3

v 0.25 1.2 -0.25
vt -9.84252 47.2441
f 6/9/3 1/8/3 7/11/3

usemtl Color_F06
vt -1.42109e-014 84.0281
vn -9.39428e-032 0.242536 -0.970143
vt -9.84252 43.4463
vt 9.84252 43.4463
f 3/12/4 7/13/4 1/14/4

vt 9.84252 43.4463
vn 0.970143 0.242536 9.39428e-032
vt 7.10543e-015 84.0281
v 0.25 1.2 0.25
vt -9.84252 43.4463
f 7/15/5 3/16/5 8/17/5

vt 1.42109e-014 84.0281
vn -3.55781e-017 0.242536 0.970143
vt -9.84252 43.4463
vt 9.84252 43.4463
f 3/18/6 2/19/6 8/20/6

usemtl Color_F12
vt -9.84252 39.3701
vn 0 0 1
vt 9.84252 47.2441
vt -9.84252 47.2441
f 4/21/7 8/22/7 2/23/7

v 0.25 1 0.25
vt 9.84252 39.3701
f 8/22/7 4/21/7 9/24/7

usemtl Color_F06
vt -9.84252 40.5817
vn -3.55781e-017 -0.242536 0.970143
v 0 0 -0
vt 0 0
vt 9.84252 40.5817
f 4/25/8 10/26/8 9/27/8

vt -9.84252 40.5817
vn -0.970143 -0.242536 7.82856e-032
vt 9.84252 40.5817
f 5/28/9 10/26/9 4/29/9

vt -9.84252 40.5817
vn -1.87886e-031 -0.242536 -0.970143
vt 9.84252 40.5817
f 6/30/10 10/26/10 5/31/10

vt 9.84252 40.5817
vn 0.970143 -0.242536 -3.13143e-032
vt -9.84252 40.5817
f 6/32/11 9/33/11 10/26/11

usemtl Color_F12
vt 9.84252 39.3701
vn 1 0 -0
vt -9.84252 47.2441
vt -9.84252 39.3701
f 6/34/12 8/35/12 9/36/12

vt 9.84252 47.2441
f 8/35/12 6/34/12 7/37/12

usemtl Color_F06
vt -9.84252 9.84252
vn 0 1 -0
vt 9.84252 -9.84252
vt 9.84252 9.84252
f 5/38/13 9/39/13 6/40/13

vt -9.84252 -9.84252
f 9/39/13 5/38/13 4/41/13

